<svg xmlns="http://www.w3.org/2000/svg" viewBox="0 0 480 360" role="img" aria-label=""><defs>
<radialGradient id="agpowerbank2fb9a31f7a6bgenshinn9" cx="0.5" cy="0.4" r="0.8">
  <stop offset="0" stop-color="#2fb9a3" stop-opacity="0.7"/>
  <stop offset="0.55" stop-color="#2fb9a3" stop-opacity="0.16"/>
  <stop offset="1" stop-color="#2fb9a3" stop-opacity="0"/>
</radialGradient>
<linearGradient id="alpowerbank2fb9a31f7a6bgenshinn9" x1="0" y1="0" x2="1" y2="0">
  <stop offset="0" stop-color="#2fb9a3" stop-opacity="0"/>
  <stop offset="0.5" stop-color="#2fb9a3"/>
  <stop offset="1" stop-color="#2fb9a3" stop-opacity="0"/>
</linearGradient>
<linearGradient id="mbpowerbank2fb9a31f7a6bgenshinn9" x1="0" y1="0" x2="0.85" y2="1">
  <stop offset="0" stop-color="#79afa6"/>
  <stop offset="0.3" stop-color="#3e8d80"/>
  <stop offset="0.65" stop-color="#1f7a6b"/>
  <stop offset="1" stop-color="#134940"/>
</linearGradient>
<linearGradient id="mtpowerbank2fb9a31f7a6bgenshinn9" x1="0" y1="0" x2="0" y2="1">
  <stop offset="0" stop-color="#ffffff" stop-opacity="0.3"/>
  <stop offset="0.4" stop-color="#ffffff" stop-opacity="0.05"/>
  <stop offset="1" stop-color="#000000" stop-opacity="0.3"/>
</linearGradient>
<radialGradient id="glpowerbank2fb9a31f7a6bgenshinn9" cx="0.38" cy="0.32" r="0.95">
  <stop offset="0" stop-color="#39414f"/>
  <stop offset="0.4" stop-color="#12151d"/>
  <stop offset="1" stop-color="#04040a"/>
</radialGradient>
<filter id="fzpowerbank2fb9a31f7a6bgenshinn9" x="-60%" y="-60%" width="220%" height="220%"><feGaussianBlur stdDeviation="6"/></filter>
</defs>
<rect width="480" height="360" fill="#0b0b10"/>
<path d="M40 0 V360" stroke="#ffffff" stroke-opacity="0.03"/><path d="M80 0 V360" stroke="#ffffff" stroke-opacity="0.03"/><path d="M120 0 V360" stroke="#ffffff" stroke-opacity="0.03"/><path d="M160 0 V360" stroke="#ffffff" stroke-opacity="0.03"/><path d="M200 0 V360" stroke="#ffffff" stroke-opacity="0.03"/><path d="M240 0 V360" stroke="#ffffff" stroke-opacity="0.03"/><path d="M280 0 V360" stroke="#ffffff" stroke-opacity="0.03"/><path d="M320 0 V360" stroke="#ffffff" stroke-opacity="0.03"/><path d="M360 0 V360" stroke="#ffffff" stroke-opacity="0.03"/><path d="M400 0 V360" stroke="#ffffff" stroke-opacity="0.03"/><path d="M440 0 V360" stroke="#ffffff" stroke-opacity="0.03"/><path d="M0 40 H480" stroke="#ffffff" stroke-opacity="0.03"/><path d="M0 80 H480" stroke="#ffffff" stroke-opacity="0.03"/><path d="M0 120 H480" stroke="#ffffff" stroke-opacity="0.03"/><path d="M0 160 H480" stroke="#ffffff" stroke-opacity="0.03"/><path d="M0 200 H480" stroke="#ffffff" stroke-opacity="0.03"/><path d="M0 240 H480" stroke="#ffffff" stroke-opacity="0.03"/><path d="M0 280 H480" stroke="#ffffff" stroke-opacity="0.03"/><path d="M0 320 H480" stroke="#ffffff" stroke-opacity="0.03"/>
<ellipse cx="240" cy="176" rx="225" ry="145" fill="url(#agpowerbank2fb9a31f7a6bgenshinn9)"/><ellipse cx="240" cy="312" rx="96" ry="10" fill="#000" opacity="0.45" filter="url(#fzpowerbank2fb9a31f7a6bgenshinn9)"/>
<path d="M164 312 V150 a76 76 0 0 1 152 0 v162 z" fill="url(#mbpowerbank2fb9a31f7a6bgenshinn9)"/>
<path d="M164 312 V150 a76 76 0 0 1 152 0 v162 z" fill="url(#mtpowerbank2fb9a31f7a6bgenshinn9)"/>
<path d="M165.4 310.6 V150 a74.6 74.6 0 0 1 149.2 0 v160.6 z" fill="none" stroke="#c9a24b" stroke-width="2.2"/>
<circle cx="240" cy="150" r="52" fill="none" stroke="#c9a24b" stroke-opacity="0.6" stroke-width="1.6" stroke-dasharray="2 5"/>
<circle cx="240.0" cy="98.0" r="6" fill="#74c2a8" opacity="0.95"/><circle cx="280.7" cy="117.6" r="6" fill="#d8b45c" opacity="0.95"/><circle cx="290.7" cy="161.6" r="6" fill="#a68cc8" opacity="0.95"/><circle cx="262.6" cy="196.9" r="6" fill="#9ac546" opacity="0.95"/><circle cx="217.4" cy="196.9" r="6" fill="#4cc2f1" opacity="0.95"/><circle cx="189.3" cy="161.6" r="6" fill="#ef7938" opacity="0.95"/><circle cx="199.3" cy="117.6" r="6" fill="#9fd6e3" opacity="0.95"/>
<path d="M240 128 c-5 18 -22 25 -22 44 a22 22 0 0 0 44 0 c0 -19 -17 -26 -22 -44z" fill="none" stroke="#c9a24b" stroke-width="2.6" stroke-linejoin="round"/>
<path d="M188 236 H292" stroke="#c9a24b" stroke-opacity="0.55" stroke-width="1.2"/>
<text x="240" y="262" font-family="'Shippori Mincho',serif" font-size="11" font-weight="800" fill="#e9e9f2" opacity="0.8" text-anchor="middle" letter-spacing="3">七耀の灯</text>
<circle cx="216" cy="284" r="4" fill="#c9a24b" opacity="0.95"/><circle cx="232" cy="284" r="4" fill="#c9a24b" opacity="0.73"/><circle cx="248" cy="284" r="4" fill="#c9a24b" opacity="0.51"/><circle cx="264" cy="284" r="4" fill="#c9a24b" opacity="0.29"/>
<rect x="222" y="304" width="36" height="8" rx="4" fill="#07070b" stroke="#c9a24b" stroke-width="1.2"/>
<text x="240" y="336" font-family="sans-serif" font-size="10" fill="#9c9cb0" text-anchor="middle" letter-spacing="3">10000mAh ・ 45W MAGNETIC</text></svg>